<?xml version="1.0" standalone="no"?>
<!DOCTYPE svg PUBLIC "-//W3C//DTD SVG 20010904//EN"
 "http://www.w3.org/TR/2001/REC-SVG-20010904/DTD/svg10.dtd">
<svg version="1.0" xmlns="http://www.w3.org/2000/svg"
 width="500.000000pt" height="500.000000pt" viewBox="0 0 500.000000 500.000000"
 preserveAspectRatio="xMidYMid meet">

<g transform="translate(0.000000,500.000000) scale(0.100000,-0.100000)"
fill="#FFFFFF" stroke="none">
<path d="M2280 4909 c-767 -66 -1457 -491 -1866 -1151 -115 -185 -222 -437
-278 -653 -59 -224 -71 -330 -71 -615 0 -231 3 -281 23 -390 47 -264 109 -455
222 -685 310 -632 894 -1104 1585 -1280 284 -72 655 -90 940 -47 941 145 1705
805 1975 1709 156 521 129 1089 -75 1598 -86 213 -170 362 -314 555 -495 662
-1316 1030 -2141 959z m592 -1673 c164 -280 298 -514 296 -521 -5 -18 -352
-605 -358 -605 -3 0 -149 246 -325 545 -176 300 -322 541 -326 537 -4 -4 -192
-331 -419 -727 -580 -1011 -583 -1016 -585 -1013 -2 2 -71 131 -155 288 -83
157 -163 304 -176 327 -21 36 -23 46 -13 65 13 25 442 769 719 1248 97 168
185 320 194 338 l17 32 416 -2 416 -3 299 -509z m1050 94 c52 -96 129 -241
172 -322 l77 -147 -204 -353 c-112 -194 -322 -558 -467 -808 -144 -250 -267
-461 -272 -467 -8 -10 -104 -13 -417 -13 l-406 0 -300 512 c-165 281 -302 515
-303 520 -4 9 349 617 358 617 3 0 140 -230 305 -511 165 -281 309 -526 321
-546 l21 -35 55 94 c31 52 250 434 488 849 498 869 459 805 470 794 5 -5 51
-88 102 -184z"/>
</g>
</svg>
